<?xml version="1.0" encoding="UTF-8"?>
<svg id="Layer_2" xmlns="http://www.w3.org/2000/svg" viewBox="0 0 55.92 47.95">
  <defs>
    <style>
      .cls-1 {
        fill: #fbd97f;
      }

      .cls-2 {
        fill: #b22424;
      }
    </style>
  </defs>
  <g id="Layer_1-2" data-name="Layer_1">
    <g>
      <path class="cls-2" d="M7.26,8.5c.03-.5-.08-1.03.13-1.37.3-.49.79-1.17,1.25-1.2,1.86-.14,3.74-.08,5.61-.06.95.01,1.36.59,1.28,1.5-.09,1.01.38,1.31,1.34,1.29,2.02-.05,4.05-.04,6.07,0,.85.02,1.28-.26,1.48-1.12.3-1.27.73-2.52,1.13-3.77C26.3,1.48,28.14.06,30.54.03c3.74-.04,7.49-.04,11.23,0,2.47.02,4.26,1.42,5.05,3.83.39,1.2.8,2.39,1.11,3.62.2.82.57,1.14,1.45,1.18,4.47.23,6.55,2.48,6.55,6.97,0,8.55,0,17.11,0,25.66,0,4.25-2.41,6.66-6.67,6.66-14.17,0-28.34,0-42.51,0-4.36,0-6.73-2.38-6.73-6.75C0,32.69,0,24.19,0,15.69c0-4.54,1.96-6.67,6.48-7.06.24-.02.48-.08.78-.13ZM36.19,16.65c-7.36,0-13.46,6.09-13.43,13.41.03,7.28,6.07,13.36,13.34,13.4,7.36.04,13.46-6.02,13.47-13.38.01-7.4-6-13.43-13.38-13.43ZM10.14,16.74c1.21,0,2.43.01,3.64,0,1.1-.01,1.48-.68,1.51-1.68.03-1.05-.14-2.04-1.43-2.07-2.43-.07-4.86-.06-7.28,0-1.17.03-1.46.89-1.45,1.92.01,1.03.31,1.82,1.51,1.84,1.16.02,2.33,0,3.49,0Z"/>
      <path class="cls-1" d="M36.19,16.65c7.38,0,13.39,6.03,13.38,13.43-.01,7.36-6.11,13.42-13.47,13.38-7.26-.04-13.31-6.11-13.34-13.4-.03-7.32,6.07-13.41,13.43-13.41ZM36.27,18.53c-6.59,0-11.63,5.04-11.62,11.6,0,6.3,5.18,11.44,11.53,11.44,6.43,0,11.51-5.1,11.51-11.58,0-6.41-5.05-11.48-11.42-11.47Z"/>
      <path class="cls-1" d="M10.14,16.74c-1.16,0-2.33.02-3.49,0-1.2-.02-1.5-.81-1.51-1.84-.01-1.03.28-1.89,1.45-1.92,2.43-.06,4.86-.07,7.28,0,1.28.04,1.46,1.02,1.43,2.07-.03,1-.41,1.67-1.51,1.68-1.21.02-2.43,0-3.64,0Z"/>
      <path class="cls-2" d="M36.27,18.53c6.37,0,11.42,5.06,11.42,11.47,0,6.47-5.08,11.58-11.51,11.58-6.35,0-11.53-5.14-11.53-11.44,0-6.56,5.03-11.6,11.62-11.6ZM36.31,20.58c-5.26-.03-9.55,4.12-9.61,9.3-.06,5.3,4.18,9.64,9.43,9.67,5.15.03,9.47-4.17,9.51-9.26.05-5.4-4.05-9.67-9.33-9.7Z"/>
      <path class="cls-1" d="M36.31,20.58c5.28.03,9.38,4.3,9.33,9.7-.05,5.09-4.36,9.29-9.51,9.26-5.26-.03-9.49-4.37-9.43-9.67.05-5.18,4.35-9.33,9.61-9.3Z"/>
    </g>
  </g>
</svg>