<?xml version="1.0" encoding="UTF-8"?>
<svg id="Layer_2" xmlns="http://www.w3.org/2000/svg" viewBox="0 0 65.96 41.72">
  <defs>
    <style>
      .cls-1 {
        fill: #b22424;
      }
    </style>
  </defs>
  <g id="Layer_1-2" data-name="Layer_1">
    <g>
      <path class="cls-1" d="M25.07,34.55c-6.41,0-12.83,0-19.24,0-3.8,0-5.8-1.98-5.81-5.79C0,21.15,0,13.54.01,5.94.02,1.97,2.04,0,6,0c12.83,0,25.65,0,38.48,0,3.85,0,5.85,2.01,5.85,5.89,0,7.61,0,15.21,0,22.82,0,3.91-1.94,5.83-5.88,5.84-6.46,0-12.93,0-19.39,0Z"/>
      <path class="cls-1" d="M65.95,17.32c0,4.52,0,9.05,0,13.57,0,2.16-.67,2.56-2.49,1.51-3.19-1.83-6.35-3.7-9.56-5.49-.81-.45-1.09-.98-1.08-1.88.03-5.17-.02-10.34.06-15.51,0-.6.46-1.44.96-1.74,3.22-1.97,6.51-3.83,9.79-5.69,1.58-.9,2.32-.46,2.33,1.36.02,4.62,0,9.24,0,13.87Z"/>
      <path class="cls-1" d="M25.19,36.99c4.22,0,8.45,0,12.67,0,1.81,0,2.84.87,2.84,2.32,0,1.43-1.08,2.39-2.82,2.4-8.45.01-16.89.01-25.34,0-1.79,0-2.83-.91-2.83-2.36,0-1.49,1-2.35,2.81-2.35,4.22-.01,8.45,0,12.67,0Z"/>
    </g>
  </g>
</svg>