<?xml version="1.0" encoding="UTF-8"?>
<!DOCTYPE svg PUBLIC "-//W3C//DTD SVG 1.1//EN" "http://www.w3.org/Graphics/SVG/1.1/DTD/svg11.dtd">
<!-- Creator: CorelDRAW -->
<svg xmlns="http://www.w3.org/2000/svg" xml:space="preserve" width="2048px" height="2048px" style="shape-rendering:geometricPrecision; text-rendering:geometricPrecision; image-rendering:optimizeQuality; fill-rule:evenodd; clip-rule:evenodd"
viewBox="0 0 2048 2048"
 xmlns:xlink="http://www.w3.org/1999/xlink">
 <defs>
  <style type="text/css">
   <![CDATA[
    .fil1 {fill:none}
    .fil0 {fill:#212121;fill-rule:nonzero}
   ]]>
  </style>
 </defs>
 <g id="Layer_x0020_1">
  <metadata id="CorelCorpID_0Corel-Layer"/>
  <g id="_557073968">
   <path id="_557074904" class="fil0" d="M388.363 841.42l936.729 0c36.4323,0 69.5315,14.8831 93.5068,38.8571 23.974,23.9752 38.8571,57.0756 38.8571,93.5079l0 535.274c0,36.4323 -14.8831,69.5315 -38.8571,93.5056 -23.9752,23.9752 -57.0745,38.8571 -93.5068,38.8571l-936.729 0c-36.4335,0 -69.5327,-14.8819 -93.5068,-38.8571 -23.9752,-23.974 -38.8571,-57.0721 -38.8571,-93.5056l0 -535.274c0,-36.4323 14.8819,-69.5327 38.8571,-93.5079 23.974,-23.974 57.0745,-38.8571 93.5068,-38.8571zm936.729 64.0016l-936.729 0c-18.7665,0 -35.8524,7.70197 -48.2563,20.1059 -12.4051,12.4051 -20.1059,29.491 -20.1059,48.2575l0 535.274c0,18.7665 7.70079,35.85 20.1059,48.2552 12.4051,12.4051 29.4898,20.1059 48.2563,20.1059l936.729 0c18.7665,0 35.8512,-7.70079 48.2563,-20.1059 12.4039,-12.4039 20.1059,-29.4886 20.1059,-48.2552l0 -535.274c0,-18.7665 -7.70079,-35.8524 -20.1059,-48.2575 -12.4051,-12.4051 -29.491,-20.1059 -48.2563,-20.1059z"/>
   <path id="_557074952" class="fil0" d="M1458.58 1029.48l243.307 -104.32c7.25316,-3.10984 14.4957,-4.53898 21.5965,-4.53898 15.0201,0 28.637,6.18189 39.8233,16.0831 9.13465,8.08583 16.6394,18.8516 21.5811,30.378 4.51654,10.5319 7.11851,22.0288 7.11851,33.0721l0 482.528c0,11.0433 -2.60197,22.539 -7.11851,33.0709 -4.94174,11.5264 -12.4476,22.291 -21.5823,30.3792 -11.0988,9.82442 -24.7087,15.9602 -39.8244,15.9579l0 0.125197c-7.10079,0 -14.341,-1.42913 -21.5941,-4.53898l-243.307 -104.32c-13.6689,-5.85945 -27.3225,-12.0532 -39.2055,-21.8575 -15.5929,-12.8658 -25.9146,-29.4591 -25.9146,-53.1367l0 -273.888c0,-23.6764 10.3205,-40.2685 25.9122,-53.1355 11.8831,-9.80434 25.5366,-15.9969 39.2079,-21.8587zm263.822 -43.6465l-238.823 102.397c-9.38623,4.02402 -18.5445,8.09883 -23.7071,12.3579 -1.44921,1.19646 -2.41063,2.47205 -2.41063,3.88583l0 273.888c0,1.4126 0.962599,2.69055 2.41299,3.88701 5.1626,4.25906 14.3221,8.33386 23.7047,12.3567l238.821 102.397c1.40788,-1.64764 2.69055,-3.80906 3.73701,-6.24922 1.18465,-2.76142 1.86732,-5.57953 1.86732,-8.07166l0 -482.528c0,-2.49213 -0.682678,-5.31142 -1.86732,-8.07284 -1.04646,-2.44016 -2.32914,-4.6004 -3.73583,-6.24804z"/>
   <path id="_557073848" class="fil0" d="M519.393 1008.69l674.671 0c23.8866,0 45.5811,9.75001 61.2874,25.4563 15.7063,15.7063 25.4563,37.4008 25.4563,61.2874l0 291.97c0,23.8866 -9.75001,45.5811 -25.4563,61.2874 -15.7063,15.7063 -37.4008,25.4563 -61.2874,25.4563l-674.671 0c-23.8878,0 -45.5811,-9.75001 -61.2863,-25.4563 -15.7063,-15.7063 -25.4563,-37.4008 -25.4563,-61.2874l0 -291.97c0,-23.8866 9.75001,-45.5811 25.4563,-61.2874 15.7051,-15.7063 37.3985,-25.4563 61.2863,-25.4563zm674.671 64.0016l-674.671 0c-6.21969,0 -11.8996,2.5689 -16.0358,6.70512 -4.13622,4.13622 -6.70512,9.81615 -6.70512,16.037l0 291.97c0,6.22087 2.5689,11.9008 6.70512,16.037 4.13622,4.13622 9.81615,6.70512 16.0358,6.70512l674.671 0c6.22087,0 11.9008,-2.5689 16.037,-6.70512 4.13622,-4.13622 6.70512,-9.81615 6.70512,-16.037l0 -291.97c0,-6.22087 -2.5689,-11.9008 -6.70512,-16.037 -4.13622,-4.13622 -9.81615,-6.70512 -16.037,-6.70512z"/>
   <path id="_557074280" class="fil0" d="M589.093 406.577c68.8796,0 131.244,27.9225 176.387,73.0666 45.1441,45.1429 73.0666,107.509 73.0666,176.388 0,68.8784 -27.9225,131.244 -73.0666,176.387 -45.1429,45.1441 -107.509,73.0666 -176.387,73.0666 -68.8796,0 -131.245,-27.9225 -176.388,-73.0666 -45.1441,-45.1429 -73.0666,-107.508 -73.0666,-176.387 0,-68.8796 27.9225,-131.245 73.0666,-176.388 45.1429,-45.1441 107.509,-73.0666 176.388,-73.0666zm131.137 118.317c-33.5563,-33.5575 -79.9217,-54.3154 -131.137,-54.3154 -51.215,0 -97.5804,20.7567 -131.138,54.3154 -33.5587,33.5575 -54.3154,79.9229 -54.3154,131.138 0,51.215 20.7579,97.5804 54.3154,131.137 33.5575,33.5587 79.9229,54.3154 131.138,54.3154 51.2138,0 97.5804,-20.7579 131.137,-54.3154 33.5575,-33.5563 54.3154,-79.9229 54.3154,-131.137 0,-51.215 -20.7567,-97.5804 -54.3154,-131.138z"/>
   <path id="_557074472" class="fil0" d="M1124.37 406.577c68.8796,0 131.244,27.9225 176.387,73.0666 45.1441,45.1429 73.0666,107.509 73.0666,176.388 0,68.8784 -27.9225,131.244 -73.0666,176.387 -45.1429,45.1441 -107.508,73.0666 -176.387,73.0666 -68.8784,0 -131.245,-27.9225 -176.388,-73.0666 -45.1441,-45.1429 -73.0666,-107.508 -73.0666,-176.387 0,-68.8796 27.9225,-131.245 73.0666,-176.388 45.1429,-45.1441 107.51,-73.0666 176.388,-73.0666zm131.137 118.317c-33.5575,-33.5587 -79.9217,-54.3154 -131.137,-54.3154 -51.215,0 -97.5816,20.7579 -131.138,54.3154 -33.5587,33.5575 -54.3154,79.9229 -54.3154,131.138 0,51.215 20.7579,97.5804 54.3154,131.137 33.5563,33.5575 79.9229,54.3154 131.138,54.3154 51.215,0 97.5792,-20.7567 131.137,-54.3154 33.5575,-33.5563 54.3154,-79.9229 54.3154,-131.137 0,-51.215 -20.7567,-97.5804 -54.3154,-131.138z"/>
  </g>
 </g>
 <rect class="fil1" width="2048" height="2048"/>
</svg>
